<?xml version="1.0" encoding="UTF-8"?>
<svg width="22px" height="24px" viewBox="0 0 22 24" version="1.1" xmlns="http://www.w3.org/2000/svg" xmlns:xlink="http://www.w3.org/1999/xlink">
    <!-- Generator: Sketch 64 (93537) - https://sketch.com -->
    <title>b</title>
    <desc>Created with Sketch.</desc>
    <g id="Welcome" stroke="none" stroke-width="1" fill="none" fill-rule="evenodd">
        <g id="app" transform="translate(-309.000000, -739.000000)" fill="#222222" fill-rule="nonzero">
            <g id="Group-2" transform="translate(290.000000, 720.000000)">
                <path d="M39.1249527,42.9999928 C39.7483795,42.9999928 40.24995,42.4984224 40.24995,41.8749955 L40.24995,41.1249973 C40.24995,40.7734357 40.0858879,40.4546956 39.8327452,40.2484278 C39.6359073,39.5265819 39.6359073,37.468756 39.8327452,36.7468644 C40.0858879,36.5453116 40.24995,36.2265715 40.24995,35.8750098 L40.24995,20.1250474 C40.24995,19.5016205 39.7483795,19.0000501 39.1249527,19.0000501 L23.7499893,19.0000501 C21.2656203,19.0000501 19.2500001,21.0156703 19.2500001,23.5000393 L19.2500001,38.5000036 C19.2500001,40.9843727 21.2656203,42.9999928 23.7499893,42.9999928 L39.1249527,42.9999928 Z M35.4687114,26.5000358 L25.5312351,26.5000358 C25.3765571,26.5000358 25.2499858,26.3734608 25.2499858,26.2187829 L25.2499858,25.2812851 C25.2499858,25.1266071 25.3765571,25.0000358 25.5312351,25.0000358 L35.4687114,25.0000358 C35.6233894,25.0000358 35.7499607,25.1266071 35.7499607,25.2812851 L35.7499607,26.2187829 C35.7499607,26.3734608 35.6233894,26.5000358 35.4687114,26.5000358 Z M35.4687114,29.5000286 L25.5312351,29.5000286 C25.3765571,29.5000286 25.2499858,29.3734537 25.2499858,29.2187757 L25.2499858,28.2812779 C25.2499858,28.1266 25.3765571,28.0000286 25.5312351,28.0000286 L35.4687114,28.0000286 C35.6233894,28.0000286 35.7499607,28.1266 35.7499607,28.2812779 L35.7499607,29.2187757 C35.7499607,29.3734537 35.6233894,29.5000286 35.4687114,29.5000286 Z M37.1281007,40.0000072 L23.7499929,40.0000072 C22.9202947,40.0000072 22.2499929,39.3296983 22.2499929,38.5000072 C22.2499929,37.6750239 22.9250096,37.0000072 23.7499929,37.0000072 L37.1281007,37.0000072 C37.0390202,37.8015494 37.0390202,39.1984577 37.1281007,40.0000072 Z" id="b"></path>
            </g>
        </g>
    </g>
</svg>