<?xml version="1.0" encoding="UTF-8"?>
<svg width="21px" height="15px" viewBox="0 0 21 15" version="1.1" xmlns="http://www.w3.org/2000/svg" xmlns:xlink="http://www.w3.org/1999/xlink">
    <!-- Generator: Sketch 64 (93537) - https://sketch.com -->
    <title>i</title>
    <desc>Created with Sketch.</desc>
    <g id="Welcome" stroke="none" stroke-width="1" fill="none" fill-rule="evenodd">
        <g id="Desktop---on-board" transform="translate(-818.000000, -580.000000)" fill="#959595" fill-rule="nonzero">
            <g id="pic-grid" transform="translate(562.000000, 438.000000)">
                <path d="M274.416624,157 C275.452159,157 276.291619,156.16054 276.291619,155.125004 L276.291619,143.875031 C276.291619,142.839496 275.452159,142.000036 274.416624,142.000036 L258.166662,142.000036 C257.131127,142.000036 256.291667,142.839496 256.291667,143.875031 L256.291667,155.125004 C256.291667,156.16054 257.131127,157 258.166662,157 L274.416624,157 Z M274.182249,155.125004 L258.401037,155.125004 C258.271681,155.125004 258.166662,155.019986 258.166662,154.89063 L258.166662,144.109406 C258.166662,143.98005 258.271681,143.875031 258.401037,143.875031 L274.182249,143.875031 C274.311605,143.875031 274.416624,143.98005 274.416624,144.109406 L274.416624,154.89063 C274.416624,155.019986 274.311605,155.125004 274.182249,155.125004 Z M261.291655,148.56252 C262.154575,148.56252 262.854151,147.862944 262.854151,147.000024 C262.854151,146.137103 262.154575,145.437528 261.291655,145.437528 C260.428734,145.437528 259.729159,146.137103 259.729159,147.000024 C259.729159,147.862944 260.428734,148.56252 261.291655,148.56252 Z M272.541628,153.250009 L272.541628,150.125016 L269.123095,146.706484 C268.940028,146.523417 268.643246,146.523417 268.460141,146.706484 L263.791649,151.375013 L262.248112,149.831476 C262.065045,149.648409 261.768262,149.648409 261.585157,149.831476 L260.041658,151.375013 L260.041658,153.250009 L272.541628,153.250009 Z" id="i"></path>
            </g>
        </g>
    </g>
</svg>