<?xml version="1.0" encoding="UTF-8"?>
<svg width="28px" height="40px" viewBox="0 0 28 40" version="1.1" xmlns="http://www.w3.org/2000/svg" xmlns:xlink="http://www.w3.org/1999/xlink">
    <!-- Generator: Sketch 64 (93537) - https://sketch.com -->
    <title>m</title>
    <desc>Created with Sketch.</desc>
    <g id="Welcome" stroke="none" stroke-width="1" fill="none" fill-rule="evenodd">
        <g id="app" transform="translate(-193.000000, -732.000000)" fill="#000000" fill-rule="nonzero">
            <g id="Group" transform="translate(161.000000, 706.000000)">
                <path d="M46.0833007,53.5000179 C50.2254417,53.5000179 53.5832828,50.1421768 53.5832828,46.0000358 L53.5832828,33.5000656 C53.5832828,29.3579246 50.2254417,26.0000834 46.0833007,26.0000834 C41.9411597,26.0000834 38.5833185,29.3579246 38.5833185,33.5000656 L38.5833185,46.0000358 C38.5833185,50.1421768 41.9411597,53.5000179 46.0833007,53.5000179 Z M52.3332858,65.9999881 C53.0238969,65.9999881 53.5832828,65.4406022 53.5832828,64.7499911 L53.5832828,63.499994 C53.5832828,62.8093829 53.0238969,62.249997 52.3332858,62.249997 L47.9582962,62.249997 L47.9582962,59.6117587 C54.6543709,58.6929529 59.8332679,52.9453622 59.8332679,46.0000358 L59.8332679,42.2500447 C59.8332679,41.5594336 59.273882,41.0000477 58.5832709,41.0000477 L57.3332738,41.0000477 C56.6426627,41.0000477 56.0832768,41.5594336 56.0832768,42.2500447 L56.0832768,46.0000358 C56.0832768,51.8437566 51.0449893,56.5328476 45.0840812,55.9515654 C39.8887811,55.444517 36.0833245,50.7742706 36.0833245,45.5547091 L36.0833245,42.2500447 C36.0833245,41.5594336 35.5239386,41.0000477 34.8333334,41.0000477 L33.5833305,41.0000477 C32.8927193,41.0000477 32.3333334,41.5594336 32.3333334,42.2500447 L32.3333334,45.3875494 C32.3333334,52.3906303 37.3309564,58.6335963 44.2083051,59.5820041 L44.2083051,62.249997 L39.8333156,62.249997 C39.1427044,62.249997 38.5833185,62.8093829 38.5833185,63.499994 L38.5833185,64.7499911 C38.5833185,65.4406022 39.1427044,65.9999881 39.8333156,65.9999881 L52.3332858,65.9999881 Z" id="m"></path>
            </g>
        </g>
    </g>
</svg>