<?xml version="1.0" encoding="UTF-8"?>
<svg width="24px" height="8px" viewBox="0 0 24 8" version="1.1" xmlns="http://www.w3.org/2000/svg" xmlns:xlink="http://www.w3.org/1999/xlink">
    <!-- Generator: Sketch 64 (93537) - https://sketch.com -->
    <title>e</title>
    <desc>Created with Sketch.</desc>
    <g id="Welcome" stroke="none" stroke-width="1" fill="none" fill-rule="evenodd">
        <g id="app" transform="translate(-80.000000, -747.000000)" fill="#222222" fill-rule="nonzero">
            <g id="Group-2" transform="translate(62.000000, 720.000000)">
                <path d="M29.7499715,34.3750134 C31.6155828,34.3750134 33.1249634,32.8656329 33.1249634,31.0000215 C33.1249634,29.1344101 31.6155828,27.6250295 29.7499715,27.6250295 C27.8843601,27.6250295 26.3749795,29.1344101 26.3749795,31.0000215 C26.3749795,32.8656329 27.8843601,34.3750134 29.7499715,34.3750134 Z M37.9999518,34.3750134 C39.8655632,34.3750134 41.3749437,32.8656329 41.3749437,31.0000215 C41.3749437,29.1344101 39.8655632,27.6250295 37.9999518,27.6250295 C36.1343404,27.6250295 34.6249598,29.1344101 34.6249598,31.0000215 C34.6249598,32.8656329 36.1343404,34.3750134 37.9999518,34.3750134 Z M21.4999911,34.3750134 C23.3656025,34.3750134 24.8749831,32.8656329 24.8749831,31.0000215 C24.8749831,29.1344101 23.3656025,27.6250295 21.4999911,27.6250295 C19.6343797,27.6250295 18.1249992,29.1344101 18.1249992,31.0000215 C18.1249992,32.8656329 19.6343797,34.3750134 21.4999911,34.3750134 Z" id="e"></path>
            </g>
        </g>
    </g>
</svg>